<svg xmlns="http://www.w3.org/2000/svg" viewBox="0 0 600 600" width="600" height="600">
	<style>
		tspan { white-space:pre }
		.shp0 { fill: #553d2c } 
		.shp1 { fill: #2b251f } 
		.shp2 { fill: #f0f0f0 } 
		.shp3 { fill: #265539 } 
		.shp4 { fill: #458b61 } 
	</style>
	<g id="head">
		<g id="hood">
			<path id="Shape 7" class="shp0" d="M128.87 470.63C260.54 573.04 377.02 554.24 483.37 474.58C589.72 394.93 392.21 63.45 301.05 59C209.9 54.55 -2.81 368.21 128.87 470.63Z" />
			<path id="Shape 7 copy" class="shp1" d="M144.74 465.39C265.02 558.94 371.42 541.76 468.56 469.01C565.71 396.25 385.29 93.46 302.03 89.39C218.76 85.33 24.47 371.84 144.74 465.39Z" />
		</g>
		<g id="tv">
			<path id="border" class="shp2" d="M301.52 513.12C209.08 513.12 134.36 438.4 134.36 345.96C134.36 253.52 209.08 178.8 301.52 178.8C393.96 178.8 468.68 253.52 468.68 345.96C468.68 438.4 393.96 513.12 301.52 513.12Z" />
			<path id="shadow" class="shp3" d="M300.13 490.83C219.24 490.83 153.86 425.45 153.86 344.56C153.86 263.68 219.24 198.3 300.13 198.3C381.01 198.3 446.39 263.68 446.39 344.56C446.39 425.45 381.01 490.83 300.13 490.83Z" />
			<path id="front" class="shp4" d="M301.52 485.26C224.49 485.26 162.22 422.99 162.22 345.96C162.22 268.92 224.49 206.66 301.52 206.66C378.55 206.66 440.82 268.92 440.82 345.96C440.82 422.99 378.55 485.26 301.52 485.26Z" />
			<g id="screen">
				<g id="lines">
					<path id="line" class="shp2" d="M276.45 274.91L276.45 272.13L387.89 272.13L387.89 274.91L276.45 274.91Z" />
					<path id="line" class="shp2" d="M195.65 428.14L195.65 425.36L362.81 425.36L362.81 428.14L195.65 428.14Z" />
					<path id="line" class="shp2" d="M187.3 289.4L187.3 285.5L421.32 285.5L421.32 289.4L187.3 289.4Z" />
				</g>
				<path id="( ´ ∀ ` ) " fill="#f0f0f0" d="M192.64 377.18L182.54 377.18Q177.33 368.78 174.85 361.23Q172.37 353.65 172.37 346.2Q172.37 338.75 174.85 331.13Q177.37 323.48 182.54 315.15L192.64 315.15Q188.28 323.21 186.11 330.93Q183.93 338.62 183.93 346.13Q183.93 353.65 186.07 361.37Q188.25 369.09 192.64 377.18ZM231.39 325.08L240.98 312.29L250.61 312.29L238.06 325.08L231.39 325.08ZM291.3 326.48L311.78 326.48L314.97 317.23L328.13 317.23L309.33 368L293.72 368L274.91 317.23L288.07 317.23L291.3 326.48ZM308.48 335.9L294.57 335.9L301.54 356.1L308.48 335.9ZM352.44 312.29L362.06 312.29L371.65 325.08L364.99 325.08L352.44 312.29ZM420.51 377.18L410.41 377.18Q414.76 369.09 416.94 361.37Q419.11 353.65 419.11 346.13Q419.11 338.62 416.94 330.93Q414.76 323.21 410.41 315.15L420.51 315.15Q425.68 323.48 428.16 331.13Q430.68 338.75 430.68 346.2Q430.68 353.65 428.19 361.23Q425.71 368.78 420.51 377.18Z" />
			</g>
		</g>
	</g>
</svg>